<svg t="1635831360410" class="icon" viewBox="0 0 1024 1024" version="1.1" xmlns="http://www.w3.org/2000/svg" p-id="5580" width="24" height="24"><path d="M440.832 994.70336l195.072-37.91872 67.88096 56.96512C647.35232 1020.26752 581.85728 1024 512 1024c-12.36992 0-24.6016-0.11776-36.66944-0.34816l-34.49856-28.94848z m-10.09664-8.46848l-123.904-103.96672C366.19264 874.752 436.5568 870.4 512 870.4c7.07584 0 14.1056 0.03584 21.08416 0.11264l92.7232 77.80352-195.072 37.91872z m426.88-72.54528c24.59136 10.12736 38.38464 21.49376 38.38464 33.5104 0 27.27936-71.1168 51.23584-178.29376 64.86016l-68.86912-57.78944 208.77824-40.58112z m-18.69312-6.79936l-200.18176 38.912-89.43616-75.04384c122.47552 2.36032 228.13184 16.2304 289.61792 36.13184z m-504.24832 108.44672l93.21984-18.11968 31.0528 26.05568c-44.288-1.2288-86.15424-3.95776-124.27264-7.936z m-33.44384-3.92704C196.88448 997.67808 128 974.04928 128 947.2c0-26.14272 65.31072-49.23392 165.07904-63.104l124.7232 104.6528-116.57216 22.66112zM512 947.2c28.27776 0 51.2-6.87616 51.2-15.36s-22.92224-15.36-51.2-15.36-51.2 6.87616-51.2 15.36 22.92224 15.36 51.2 15.36z" p-id="5581" fill="#25E3C9"></path><path d="M512 936.96c-44.02176 0-348.16-408.46848-348.16-596.50048C163.84 152.42752 319.7184 0 512 0s348.16 152.42752 348.16 340.45952C860.16 528.49152 556.02176 936.96 512 936.96z m0-291.84c164.00896 0 296.96-132.95104 296.96-296.96s-132.95104-296.96-296.96-296.96-296.96 132.95104-296.96 296.96 132.95104 296.96 296.96 296.96z" p-id="5582" fill="#25E3C9"></path><path d="M348.16 138.24h174.76096C624.47616 138.24 675.84 181.16608 675.84 267.01312c0 86.44096-51.36384 129.95072-154.09664 129.95072H417.23904V558.08H348.16V138.24z m69.07904 58.8032v141.12256h100.36736c30.70464 0 53.14048-5.88288 67.30752-16.46592 14.17216-11.17184 21.25824-29.39904 21.25824-54.6816 0-25.2928-7.68-42.92608-21.84704-53.51424-14.16704-11.17184-36.608-16.4608-66.7136-16.4608H417.23392z" p-id="5583" fill="#25E3C9"></path></svg>