<?xml version="1.0" encoding="utf-8"?>
<svg version="1.1" xmlns:xlink="http://www.w3.org/1999/xlink" width="75px" height="4px" xmlns="http://www.w3.org/2000/svg">
  <g transform="matrix(1 0 0 1 -292 -142 )">
    <path d="M 23.683 4  L 19 4  L 22.807 0  L 27.49 0  L 23.683 4  Z M 32.683 4  L 28 4  L 31.807 0  L 36.49 0  L 32.683 4  Z M 4.68299999999999 4  L 0 4  L 3.80700000000002 0  L 8.49000000000001 0  L 4.68299999999999 4  Z M 13.683 4  L 9 4  L 12.807 0  L 17.49 0  L 13.683 4  Z M 61.683 4  L 57 4  L 60.807 0  L 65.49 0  L 61.683 4  Z M 74.49 0  L 70.683 4  L 66 4  L 69.807 0  L 74.49 0  Z M 42.683 4  L 38 4  L 41.807 0  L 46.49 0  L 42.683 4  Z M 51.683 4  L 47 4  L 50.807 0  L 55.49 0  L 51.683 4  Z " fill-rule="nonzero" fill="#07a6ff" stroke="none" transform="matrix(1 0 0 1 292 142 )" />
  </g>
</svg>