<?xml version="1.0" encoding="utf-8"?>
<svg version="1.1" xmlns:xlink="http://www.w3.org/1999/xlink" width="27px" height="27px" xmlns="http://www.w3.org/2000/svg">
  <g transform="matrix(1 0 0 1 -1796 -1018 )">
    <path d="M 1809.5 1019  C 1816.5 1019  1822 1024.5  1822 1031.5  C 1822 1038.5  1816.5 1044  1809.5 1044  C 1802.5 1044  1797 1038.5  1797 1031.5  C 1797 1024.5  1802.5 1019  1809.5 1019  Z " fill-rule="nonzero" fill="#e86452" stroke="none" fill-opacity="0.0980392156862745" />
    <path d="M 1809.5 1019  C 1816.5 1019  1822 1024.5  1822 1031.5  C 1822 1038.5  1816.5 1044  1809.5 1044  C 1802.5 1044  1797 1038.5  1797 1031.5  C 1797 1024.5  1802.5 1019  1809.5 1019  Z " stroke-width="2" stroke="#e86452" fill="none" />
  </g>
</svg>