<?xml version="1.0" encoding="utf-8"?>
<svg version="1.1" xmlns:xlink="http://www.w3.org/1999/xlink" width="27px" height="27px" xmlns="http://www.w3.org/2000/svg">
  <g transform="matrix(1 0 0 1 -1272 -1018 )">
    <path d="M 1285.5 1019  C 1292.5 1019  1298 1024.5  1298 1031.5  C 1298 1038.5  1292.5 1044  1285.5 1044  C 1278.5 1044  1273 1038.5  1273 1031.5  C 1273 1024.5  1278.5 1019  1285.5 1019  Z " fill-rule="nonzero" fill="#3dafff" stroke="none" fill-opacity="0.0980392156862745" />
    <path d="M 1285.5 1019  C 1292.5 1019  1298 1024.5  1298 1031.5  C 1298 1038.5  1292.5 1044  1285.5 1044  C 1278.5 1044  1273 1038.5  1273 1031.5  C 1273 1024.5  1278.5 1019  1285.5 1019  Z " stroke-width="2" stroke="#3dafff" fill="none" />
  </g>
</svg>