<?xml version="1.0" encoding="utf-8"?>
<svg version="1.1" xmlns:xlink="http://www.w3.org/1999/xlink" width="27px" height="27px" xmlns="http://www.w3.org/2000/svg">
  <g transform="matrix(1 0 0 1 -1580 -1018 )">
    <path d="M 1593.5 1019  C 1600.5 1019  1606 1024.5  1606 1031.5  C 1606 1038.5  1600.5 1044  1593.5 1044  C 1586.5 1044  1581 1038.5  1581 1031.5  C 1581 1024.5  1586.5 1019  1593.5 1019  Z " fill-rule="nonzero" fill="#1df5f8" stroke="none" fill-opacity="0.0980392156862745" />
    <path d="M 1593.5 1019  C 1600.5 1019  1606 1024.5  1606 1031.5  C 1606 1038.5  1600.5 1044  1593.5 1044  C 1586.5 1044  1581 1038.5  1581 1031.5  C 1581 1024.5  1586.5 1019  1593.5 1019  Z " stroke-width="2" stroke="#ff9845" fill="none" />
  </g>
</svg>