<svg t="1636193171550" class="icon" viewBox="0 0 1024 1024" version="1.1" xmlns="http://www.w3.org/2000/svg" p-id="56918" width="24" height="24"><path d="M140.7 843.6c0 21.2-17.2 38.3-38.3 38.3S64 864.8 64 843.6c0-129.1 86.7-239.8 209.6-286.2-59.9-41-99.3-109.9-99.3-187.8 0-125.5 102.1-227.5 227.5-227.5 23.4 0 45.8 4.1 67.1 10.7-25.5 18.1-47.7 40.4-65.4 66.1-0.6 0-1.1-0.2-1.7-0.2-83.2 0-150.8 67.7-150.8 150.8 0 83.2 67.6 150.8 150.8 150.8 0.7 0 1.3-0.2 1.9-0.2 6.6 9.5 13.5 18.7 21.3 27.3-33.9 19.3-63.3 43.6-88.6 70.9C224 644.5 140.7 735.4 140.7 843.6z m784.6 38v0.2h-1.6c-0.7 0-1.3 0.2-2 0.2s-1.3-0.2-2-0.2H324.8c-0.7 0-1.3 0.2-2 0.2s-1.3-0.2-2-0.2h-0.3c-20.1-1.2-36-17.7-36-38.1 0-129.1 86.7-239.8 209.6-286.2-59.9-41-99.3-109.9-99.3-187.8 0-125.5 102.1-227.5 227.5-227.5 125.5 0 227.5 102.1 227.5 227.5 0 77.9-39.4 146.8-99.3 187.8C873.2 603.8 960 714.5 960 843.6c0 19.9-15.3 36.1-34.7 38z" p-id="56919" fill="#ffffff"></path></svg>