<svg t="1636193088787" class="icon" viewBox="0 0 1024 1024" version="1.1" xmlns="http://www.w3.org/2000/svg" p-id="54667" width="24" height="24"><path d="M665.984 896h-246.4l-17.472-236.416L320 627.2V398.208c0-67.2 54.784-121.92 124.416-121.92h199.168c69.632 0 124.416 54.72 124.416 121.92V627.2l-84.608 32.384L665.984 896z m-199.168-49.792h151.872l14.912-221.44 82.112-32.384V395.712c0-39.808-32.32-72.128-74.624-72.128H441.984c-42.368 0-74.688 32.32-74.688 72.128v196.672l82.112 32.32 17.408 221.504zM544 248.96a123.264 123.264 0 0 1-124.416-124.48C419.584 54.784 474.24 0 544 0s124.416 54.784 124.416 124.416A123.264 123.264 0 0 1 544 248.96z m0-199.104c-42.304 0-74.688 32.32-74.688 74.624 0 42.368 32.384 74.688 74.688 74.688s74.688-32.32 74.688-74.688c0-42.24-32.384-74.624-74.688-74.624z" p-id="54668" fill="#ffffff"></path><path d="M512 1024c-247.232 0-512-41.92-512-135.04 0-76.8 177.28-109.312 282.24-120.96l7.488 46.528c-179.84 20.992-239.808 60.544-239.808 74.496 0 30.272 162.368 88.448 462.08 88.448s462.08-58.24 462.08-88.448c0-13.952-59.968-53.504-237.312-74.496L744.32 768c102.4 13.952 279.744 46.528 279.744 120.96C1024 982.144 759.232 1024 512 1024z" p-id="54669" fill="#ffffff"></path></svg>