<svg t="1636192884225" class="icon" viewBox="0 0 1024 1024" version="1.1" xmlns="http://www.w3.org/2000/svg" p-id="53801" width="24" height="24"><path d="M930.24 840.64h-29.76V422.4a121.28 121.28 0 0 0-119.68-119.36h-179.2V243.2a121.28 121.28 0 0 0-119.36-119.36H243.2A121.28 121.28 0 0 0 123.84 243.2v597.44h-30.08a29.76 29.76 0 0 0 0 59.84h836.48a29.76 29.76 0 0 0 0-59.84zM541.76 303.04v537.6H183.36V243.2A57.6 57.6 0 0 1 243.2 183.36h239.04a57.6 57.6 0 0 1 59.52 59.84z m298.56 537.6H601.6V362.56h179.2a57.6 57.6 0 0 1 59.84 59.84zM452.16 303.04h-179.2a32 32 0 0 0-29.76 29.76 32 32 0 0 0 29.76 29.76h179.2a32 32 0 0 0 29.76-29.76 32 32 0 0 0-29.76-29.76z m0 179.2h-179.2a29.76 29.76 0 1 0 0 59.84h179.2a29.76 29.76 0 1 0 0-59.84z m0 179.2h-179.2a29.76 29.76 0 0 0 0 59.84h179.2a29.76 29.76 0 0 0 0-59.84z m298.56-179.2H691.2a29.76 29.76 0 1 0 0 59.84h59.84a29.76 29.76 0 0 0 0-59.84z m0 179.2H691.2a29.76 29.76 0 0 0 0 59.84h59.84a29.76 29.76 0 0 0 0-59.84z" p-id="53802" fill="#ffffff"></path></svg>