<svg t="1636196786507" class="icon" viewBox="0 0 1024 1024" version="1.1" xmlns="http://www.w3.org/2000/svg" p-id="59145" width="24" height="24"><path d="M978.666667 920.58c-4.126667-28.78-12.886667-53.113333-26.786667-74.38-12.626667-19.333333-29.166667-35.56-50.58-49.66-38.1-25.086667-86.266667-39.6-137.266667-54.973333-20.433333-6.153333-41.56-12.52-62.666666-19.76-39.48-13.526667-63.28-39.366667-72.466667-78.813334l9.04-6.78a192 192 0 0 0 74.666667-125.08c10.94-2.426667 22.626667-8.993333 32.433333-23.566666 8.666667-12.886667 13.666667-28.866667 18.08-42.96 1.866667-5.96 3.626667-11.586667 5.42-16.186667C778.073333 404 784 374.96 784 352.666667c0-19.633333-7.566667-35.893333-21.333333-45.78a52.04 52.04 0 0 0-22.24-9.053334l7.5-57.486666a169 169 0 0 0-5.526667-70.48c9.686667-30.513333 22.4-52 22.526667-52.22a21.333333 21.333333 0 0 0-8-29.66C713.213333 63.846667 598.74 42.666667 512 42.666667h-0.413333a533.826667 533.826667 0 0 0-53.846667 2.766666L373.333333 54.066667A117.333333 117.333333 0 0 0 268.946667 186l14.593333 111.873333A51.946667 51.946667 0 0 0 261.333333 306.886667c-13.766667 9.886667-21.333333 26.146667-21.333333 45.78 0 22.293333 5.926667 51.333333 15.46 75.753333 1.793333 4.6 3.553333 10.226667 5.42 16.186667 4.413333 14.093333 9.413333 30.073333 18.08 42.96 9.806667 14.573333 21.493333 21.14 32.433333 23.566666a192 192 0 0 0 74.666667 125.08l9.04 6.78c-9.186667 39.446667-32.986667 65.286667-72.466667 78.813334-21.126667 7.24-42.253333 13.606667-62.666666 19.76-51 15.373333-99.166667 29.886667-137.266667 54.973333-21.413333 14.1-37.953333 30.346667-50.58 49.66-13.893333 21.266667-22.666667 45.6-26.786667 74.38a53.3 53.3 0 0 0 52.806667 60.753333h827.72a53.3 53.3 0 0 0 52.82-60.753333z" fill="#66BBF9" p-id="59146"></path></svg>