<svg t="1636188990691" class="icon" viewBox="0 0 1024 1024" version="1.1" xmlns="http://www.w3.org/2000/svg" p-id="17277" width="24" height="24"><path d="M946.596 829.139H77.403c-6.488 0-11.747-5.258-11.747-11.747V793.9c0-6.483 5.258-11.746 11.747-11.746h869.193c6.488 0 11.747 5.262 11.747 11.746v23.492c0 6.49-5.258 11.747-11.747 11.747z m0-93.967H77.403c-6.488 0-11.747-5.262-11.747-11.747v-23.492c0-6.488 5.258-11.746 11.747-11.746h35.237c0-188.544 130.822-346.164 306.529-388.07-0.45-3.745-1.137-7.423-1.137-11.29 0-51.897 42.069-93.967 93.967-93.967 51.898 0 93.967 42.07 93.967 93.967 0 3.867-0.687 7.545-1.137 11.29 175.71 41.906 306.53 199.526 306.53 388.07h35.238c6.488 0 11.747 5.258 11.747 11.747v23.492c-0.001 6.484-5.26 11.746-11.748 11.746zM512 241.846c-25.949 0-46.983 21.034-46.983 46.983 0 1.014 0.234 1.96 0.296 2.956 15.34-1.79 30.868-2.956 46.687-2.956 15.82 0 31.347 1.165 46.687 2.956 0.062-0.996 0.296-1.94 0.296-2.956 0-25.949-21.034-46.983-46.983-46.983z m0 93.967c-194.61 0-352.375 157.766-352.375 352.376h704.752C864.375 493.579 706.609 335.813 512 335.813z m-127.194 93.29c12.033 10.28 21.425 23.37 27.052 38.48-50.67 27.921-92.542 69.793-120.465 120.465-15.11-5.628-28.196-15.016-38.48-27.052a353.675 353.675 0 0 1 131.893-131.893z" p-id="17278" fill="#ffffff"></path></svg>