<svg t="1636191403544" class="icon" viewBox="0 0 1024 1024" version="1.1" xmlns="http://www.w3.org/2000/svg" p-id="51124" width="24" height="24"><path d="M987.245714 1023.634286H31.195429c-16.969143 0-30.134857-13.568-30.134858-31.012572s13.165714-30.976 30.134858-30.976h299.227428l13.165714-104.594285H166.692571a15.762286 15.762286 0 0 1-13.165714-7.753143c-1.901714-5.851429-1.901714-11.629714 0-15.506286l28.233143-46.482286-13.165714 1.938286h-1.901715c-5.668571 0-9.398857-1.938286-13.165714-7.753143a14.884571 14.884571 0 0 1 0-17.444571L247.588571 605.257143l-43.300571 5.851428h-1.865143c-5.668571 0-9.435429-1.974857-13.165714-7.789714-3.803429-5.814857-3.803429-11.593143 0-15.469714l26.331428-46.518857-9.398857 1.938285c-5.668571 1.938286-11.337143-1.938286-15.067428-5.778285a14.884571 14.884571 0 0 1 0-17.444572l71.497143-122.038857H232.594286a15.762286 15.762286 0 0 1-13.165715-7.753143c-1.901714-5.814857-1.901714-11.593143 1.865143-15.469714l58.368-77.494857h-15.067428c-5.668571 0-9.398857-1.938286-13.165715-7.753143-1.901714-3.876571-3.766857-9.691429 0-15.469714L386.889143 8.667429c1.865143-5.851429 7.533714-7.753143 13.165714-7.753143s11.300571 3.876571 13.165714 7.753143l135.497143 263.424c1.901714 1.938286 1.901714 5.778286 1.901715 7.716571 0 7.753143-7.533714 15.506286-15.067429 15.506286h-15.030857l56.429714 77.494857a14.994286 14.994286 0 0 1 3.766857 9.654857c0 7.753143-7.533714 15.506286-15.030857 15.506286h-30.134857l71.533714 120.100571a14.994286 14.994286 0 0 1 3.766857 9.691429c0 7.753143-7.533714 15.469714-15.067428 15.469714h-3.766857l-9.398857-1.938286 24.466285 44.580572c1.865143 1.938286 1.865143 5.814857 1.865143 9.654857 0 7.753143-5.632 15.506286-15.030857 15.506286h-3.766857l-43.300572-3.876572 94.098286 158.829714a14.884571 14.884571 0 0 1 0 17.444572c-3.766857 5.814857-9.398857 7.753143-15.067428 5.814857l-13.165715-1.938286 28.233143 44.544a14.994286 14.994286 0 0 1 3.766857 9.691429c0 7.753143-5.632 15.506286-15.067428 15.506286h-178.797715l15.067429 104.594285h231.497143l7.533714-60.050285h-120.466286a10.313143 10.313143 0 0 1-9.398857-5.851429c-1.901714-3.84-1.901714-7.716571 0-9.654857l7.533715-11.629714h43.264c16.969143 0 28.233143-13.531429 28.233142-30.976 0-5.851429-1.865143-13.568-5.632-17.444572l-13.165714-19.382857c5.632-1.938286 9.398857-5.778286 13.165714-11.593143 5.632-9.691429 7.533714-23.259429 0-32.914286l-5.632-29.074285-24.502857-40.667429-1.828571-3.876571-11.337143-19.382857-26.331429-44.544 15.067429 1.938285h5.632c16.932571 0 28.233143-13.531429 28.233143-31.012571v-5.778286c0-3.876571-1.901714-5.851429-3.766857-9.691428 0-1.938286 0-3.876571 1.865143-5.851429l39.533714-52.297143h-9.398857a10.313143 10.313143 0 0 1-9.435429-5.778286c-1.865143-3.876571-1.865143-7.753143 0-9.691428l92.233143-178.176a10.313143 10.313143 0 0 1 9.398857-5.851429c3.766857 0 7.533714 1.974857 9.435429 5.851429l92.196571 178.176c1.901714 1.938286 1.901714 3.876571 1.901714 5.814857 0 5.814857-3.766857 9.691429-9.435428 9.691429h-9.398857l37.668571 52.297142c1.828571 1.938286 1.828571 3.876571 1.828572 7.753143 0 5.814857-3.730286 9.691429-9.362286 9.691429h-20.736l48.932571 81.334857c1.901714 1.938286 1.901714 3.876571 1.901715 5.814857 0 5.814857-3.766857 9.691429-9.398858 9.691429h-13.165714l16.932572 30.976c1.865143 1.938286 1.865143 3.876571 1.865142 5.814857 0 5.814857-3.766857 9.691429-9.398857 9.691428l-30.134857-3.876571 64 106.532571a12.653714 12.653714 0 0 1 0 11.629715c-1.901714 3.876571-5.632 5.814857-9.398857 3.876571l-9.435429-1.938286 18.834286 30.976c1.865143 1.938286 1.865143 3.876571 1.865143 5.814858 0 5.814857-3.766857 9.691429-9.398857 9.691428H785.92l9.398857 60.050286h197.595429c16.932571 0 30.134857 13.531429 30.134857 30.976s-18.834286 34.852571-35.766857 34.852571zM202.422857 545.133714s4.900571 0 0 0c4.900571 0 4.900571 0 0 0z" fill="#ffffff" p-id="51125"></path></svg>