<svg t="1636188123778" class="icon" viewBox="0 0 1024 1024" version="1.1" xmlns="http://www.w3.org/2000/svg" p-id="8539" width="24" height="24"><path d="M153.678769 295.384615a19.692308 19.692308 0 0 0-19.652923 18.707693l-31.507692 630.153846c0 11.854769 8.782769 20.676923 19.692308 20.676923h779.618461c11.815385-0.551385 20.204308-9.846154 19.652923-20.676923l-31.507692-630.153846a19.692308 19.692308 0 0 0-19.692308-18.707693H153.718154z m0-59.076923h716.642462a78.769231 78.769231 0 0 1 78.651077 74.83077l31.507692 630.153846a78.769231 78.769231 0 0 1-78.651077 82.707692H122.171077a78.769231 78.769231 0 0 1-78.651077-82.707692l31.507692-630.153846A78.769231 78.769231 0 0 1 153.678769 236.307692z" fill="#ffffff" p-id="8540"></path><path d="M295.384615 275.692308a216.615385 216.615385 0 0 1 433.23077 0H787.692308A275.692308 275.692308 0 0 0 236.307692 275.692308h59.076923z" fill="#ffffff" p-id="8541"></path><path d="M295.384615 275.692308H236.307692a275.692308 275.692308 0 1 1 551.384616 0h-59.076923a216.615385 216.615385 0 0 0-433.23077 0z" fill="#ffffff" p-id="8542"></path><path d="M315.076923 472.615385m29.538462 0l0 0q29.538462 0 29.538461 29.538461l0 268.603077q0 29.538462-29.538461 29.538462l0 0q-29.538462 0-29.538462-29.538462l0-268.603077q0-29.538462 29.538462-29.538461Z" fill="#ffffff" p-id="8543"></path><path d="M676.942769 472.615385a29.538462 29.538462 0 0 1 29.538462 29.538461v268.603077a29.538462 29.538462 0 1 1-59.076923 0v-268.603077a29.538462 29.538462 0 0 1 29.538461-29.538461z" fill="#ffffff" p-id="8544"></path></svg>