<svg t="1636188889762" class="icon" viewBox="0 0 1024 1024" version="1.1" xmlns="http://www.w3.org/2000/svg" p-id="14579" width="24" height="24"><path d="M708.8 349.4c0-36.1-1.5-69.3 0.8-102.2 0.8-12 8-25.8 16.5-34.8 29.7-31.1 60.9-60.8 92.2-90.2 7.3-6.9 17.4-14.2 26.6-14.8 8.7-0.5 21 5.5 25.9 12.7 3.3 4.8-0.8 19.1-6.2 24.8-32.2 33.9-66.2 66.2-98.5 100-6.4 6.7-10.9 17.8-11.5 27.1-1.6 24.7-0.5 49.5-0.5 77.2h107.7c23.4 0 46.8 0.1 70.2 0 17.8-0.1 30.8 3.5 30.8 26 0.1 34.1-1.3 37.5-27.5 40.5-2.9 0.3-5.8 0.8-10.4 1.4-9.3 75.5-18.7 151-27.9 226.5-9.7 79.3-19 158.7-29 238.1-3.6 28.3-10.5 33.9-40.1 34-79.3 0.2-158.5 0.2-237.8 0-30.8-0.1-37.5-6.6-41.4-38.1C530.2 728.9 511.6 580 493 431.1c-0.6-4.4-1.9-8.7-2.8-12.7-37.8-7-36.7-7-37.8-39.8-0.7-22.5 9.8-29.3 29.9-29.2 65.7 0.3 131.3 0.1 197 0.1 8.2-0.1 16.4-0.1 29.5-0.1z m169.8 66.9H539c18.1 144.9 36.3 287.8 53.2 430.8 2 17 7.9 21 23.7 20.8 64.2-0.8 128.4-1 192.5 0.1 19.1 0.3 24-6.8 25.4-24.5 4.2-51.1 10.5-102 15.8-153 9.7-90.7 19.2-181.4 29-274.2zM434.4 686.1H83.3c-11.2 0-20.3-9.1-20.3-20.3 0-11.2 9.1-20.3 20.3-20.3h351.1c11.2 0 20.3 9.1 20.3 20.3 0 11.2-9.2 20.3-20.3 20.3zM447.6 594.8H129.2c6.1-60.9 57.7-108.6 120.2-108.6h175.9l-8.1-39.4H249.4c-88.3 0-160.2 71.8-160.2 160.1 0 15 12.2 27.2 27.2 27.2h339.3l-8.1-39.3zM498.7 843.8H249.4c-62.5 0-114-47.7-120.2-108.6h347.2l-8.1-39.4H116.4c-15 0-27.2 12.2-27.2 27.2 0 88.3 71.8 160.2 160.2 160.2h257.4l-8.1-39.4z" p-id="14580" fill="#ffffff"></path></svg>