<svg t="1636188849082" class="icon" viewBox="0 0 1024 1024" version="1.1" xmlns="http://www.w3.org/2000/svg" p-id="13238" width="24" height="24"><path d="M234.472393 445.505948h507.001395c21.674625 0 39.06473 16.802035 40.240873 37.636558h32.511937c35.704324 0 68.216261 14.869801 91.319058 37.972598 23.690869 23.690869 38.476659 55.950775 38.476659 91.907129 0 35.116252-14.78579 67.88022-38.476659 91.571089-23.102798 23.102798-55.614735 37.972598-91.319058 37.972598h-51.078185c-13.105587 33.688079-33.688079 64.183772-58.807122 89.554845h-0.588071 0.588071c-47.885799 47.885799-114.421856 77.87743-187.174665 77.87743h-59.059152c-72.500779 0-138.364755-29.991632-186.334564-77.87743-47.969809-47.969809-77.87743-113.833785-77.87743-186.586595V486.082862c0.08401-22.850767 17.726147-40.576914 40.576913-40.576914z m224.811223-54.774633c5.376651 12.601526-0.588071 26.799245-13.105587 31.335795-11.677414 5.460661-26.211174-0.588071-31.083764-12.517516-6.300763-15.457872-11.173353-31.335795-14.8698-47.969809-3.444417-16.550004-5.124621-33.100008-5.124621-50.238083 0-16.550004 1.764214-33.688079 5.124621-49.902043 3.108376-16.213963 8.569038-32.511937 14.8698-47.885799 4.87259-12.265485 19.40635-17.978177 31.083764-12.853556 12.601526 5.124621 18.566248 19.154319 13.105587 31.419804-5.124621 12.013455-8.821068 25.119042-12.013454 38.8127-2.520305 12.853556-3.696448 26.547215-3.696448 40.492904 0 14.281729 1.176142 27.975388 3.696448 40.828944 2.604315 13.105587 6.552794 26.211174 12.013454 38.476659z m94.679465-3.780458c4.284519 9.997211-0.504061 21.422594-10.501271 25.035032-9.325129 4.368529-20.918533-0.420051-24.783001-9.997211-5.04061-12.265485-8.905078-25.035032-11.845435-38.224628-2.688326-13.189597-4.116498-26.379194-4.116498-40.072853 0-13.189597 1.344163-26.799245 4.116498-39.820822 2.520305-12.937567 6.804824-25.959143 11.845435-38.224629 3.864468-9.74518 15.457872-14.281729 24.783001-10.249241 9.997211 4.116498 14.78579 15.289852 10.501271 25.035032-4.116498 9.57716-7.056855 19.994421-9.577159 30.915743-2.016244 10.249241-2.940356 21.170564-2.940356 32.259907 0 11.425384 0.924112 22.262696 2.940356 32.511937 2.100254 10.585282 5.292641 21.086553 9.577159 30.831733z m-176.001312 3.780458c-5.124621-12.265485-9.157109-25.371072-12.013455-38.476659-2.604315-12.853556-3.696448-26.547215-3.696448-40.828944 0-13.945689 1.092132-27.639347 3.696448-40.492904 2.856346-13.693658 6.888834-26.799245 12.013455-38.8127 6.552794-15.457872 11.425384-31.083764 14.8698-47.381737 3.444417-16.802035 4.87259-33.688079 4.87259-50.742145 0-16.213963-1.428173-33.688079-4.87259-49.902043-3.444417-16.213963-8.232997-32.511937-14.8698-47.633768-5.124621-12.265485-19.40635-18.230208-31.335795-12.853556-12.013455 5.124621-17.978177 19.40635-12.517516 31.671835 5.124621 12.601526 8.821068 25.119042 12.013455 38.224629 2.268275 12.853556 3.696448 26.547215 3.696448 40.492903 0 14.281729-1.428173 27.975388-3.696448 40.828944-3.192387 13.441628-6.888834 26.211174-12.013455 38.8127-6.216753 15.373862-11.677414 31.671835-14.78579 47.885799-3.696448 16.297974-5.124621 33.352039-5.124621 49.902043 0 17.138075 1.428173 33.688079 5.124621 50.238083 3.108376 16.550004 8.569038 32.511937 14.78579 47.969809 5.124621 11.929445 18.818279 17.978177 31.083764 12.517516 11.929445-4.536549 18.230208-18.818279 12.769547-31.419805z m402.9968 120.638609V653.599147c0 20.246452-2.100254 40.744934-5.376651 60.235294h45.785544c27.639347 0 52.842399-11.005333 70.904587-29.403561 18.818279-18.482238 30.159652-43.265239 30.159652-71.324637 0-27.639347-11.341373-53.17844-30.159652-71.660677-18.062187-18.062187-43.265239-30.159652-70.904587-30.159652h-40.408893v0.08401z m-620.919189 478.521946c-13.105587 0-23.942899-10.249241-23.9429-23.9429 0-13.441628 10.837312-23.942899 23.9429-23.942899h655.615391c13.441628 0 24.530971 10.585282 24.53097 23.942899 0 13.693658-11.089343 23.942899-24.53097 23.9429H160.03938z m574.881614-487.679055h-493.979818v138.280745c0 58.38707 24.11092 111.56551 62.67159 150.126179 38.64468 38.64468 92.07515 62.419559 149.790138 62.419559H521.703175c58.38707 0 111.56551-23.774879 150.46222-62.419559v0.336041c38.308639-38.89671 62.671589-92.07515 62.671589-150.46222V502.212815h0.08401z" fill="#ffffff" p-id="13239"></path></svg>