<svg t="1636190543365" class="icon" viewBox="0 0 1048 1024" version="1.1" xmlns="http://www.w3.org/2000/svg" p-id="45378" width="24" height="24"><path d="M575.677516 845.395981H364.45885a22.260791 22.260791 0 0 1 0-44.003889h211.218666a22.260791 22.260791 0 1 1 0 44.003889z m-414.154247 0H64.197021A57.981595 57.981595 0 0 1 6.215426 788.967465v-144.436294a97.326248 97.326248 0 0 1 67.817758-93.184706l178.604019-90.078548L347.374987 323.043937a103.538562 103.538562 0 0 1 83.866235-44.521582h258.846405a23.296176 23.296176 0 1 1 0 46.07466h-258.846405a55.393131 55.393131 0 0 0-45.556967 23.813869l-98.361634 144.436294a23.296176 23.296176 0 0 1-8.800777 7.765392l-185.851719 93.184706h-3.623849a51.769281 51.769281 0 0 0-36.75619 51.769281v143.918601a11.389242 11.389242 0 0 0 11.389242 11.389241h94.220091a23.296176 23.296176 0 0 1 0 46.592353z m0 0" p-id="45379" fill="#ffffff"></path><path d="M157.899419 853.161373H64.197021A64.193908 64.193908 0 0 1 0.003112 788.967465v-144.436294a103.538562 103.538562 0 0 1 71.959301-99.397019l176.015555-88.007778 94.220091-137.706287a108.197797 108.197797 0 0 1 89.043163-47.110046h258.846405a29.50849 29.50849 0 0 1 0 59.016981h-258.846405a48.663124 48.663124 0 0 0-40.380039 21.225405l-98.361633 144.436293a30.026183 30.026183 0 0 1-11.389242 9.836164l-185.851719 93.184705h-4.141542a45.039274 45.039274 0 0 0-32.614647 43.486196v143.918601a5.176928 5.176928 0 0 0 5.176928 4.659236h94.220091a29.767337 29.767337 0 0 1 0 59.534673z m273.341803-569.46209a95.255477 95.255477 0 0 0-78.689307 41.415425L255.225667 467.997923l-178.604019 89.560856a91.631627 91.631627 0 0 0-64.193908 87.490085v143.918601a51.769281 51.769281 0 0 0 51.769281 51.769281h93.702398a16.56617 16.56617 0 0 0 11.906935-5.176928 16.56617 16.56617 0 0 0 4.659235-11.906935 16.56617 16.56617 0 0 0-16.56617-16.56617H64.197021a18.119248 18.119248 0 0 1-18.119249-17.601555v-144.436294a57.981595 57.981595 0 0 1 41.415425-55.393131l185.851719-93.184705a16.56617 16.56617 0 0 0 6.212313-5.694621l98.361634-144.436294a61.605444 61.605444 0 0 1 51.769281-26.920026h258.846404a16.56617 16.56617 0 0 0 0-33.13234z m142.883216 569.46209H364.45885a28.473104 28.473104 0 1 1 0-56.946209h211.218666a28.473104 28.473104 0 1 1 0 56.946209z m-209.665588-44.003889a15.530784 15.530784 0 1 0 0 31.061569h211.218666a15.530784 15.530784 0 1 0 0-31.061569z" p-id="45380" fill="#ffffff"></path><path d="M652.813745 517.17874h-212.254052a23.296176 23.296176 0 1 1 0-46.07466h212.254052a23.296176 23.296176 0 0 1 0 46.07466z m0 0" p-id="45381" fill="#ffffff"></path><path d="M652.813745 523.908747h-212.254052a29.50849 29.50849 0 0 1 0-59.016981h212.254052a29.50849 29.50849 0 0 1 0 59.016981z m-212.254052-46.07466a16.56617 16.56617 0 0 0 0 33.132339h212.254052a16.56617 16.56617 0 0 0 0-33.132339z" p-id="45382" fill="#ffffff"></path><path d="M834.523921 1017.269993c-76.100843 0-99.397019-82.313157-100.432405-85.937006a19.154634 19.154634 0 0 1-3.106157-4.141542V386.202459a213.289437 213.289437 0 0 1-62.64083-289.39028 23.296176 23.296176 0 0 1 40.380039 0l69.370836 105.609333h56.428517l22.26079-41.415425-66.782372-113.892418a23.296176 23.296176 0 0 1 0-20.707712 23.296176 23.296176 0 0 1 16.048477-13.460013s159.967078-34.685418 228.820222 161.520156c36.756189 94.737784-65.229294 190.510954-97.326248 217.43098v535.294365a24.331562 24.331562 0 0 1 0 6.212313c0 3.62385-25.366948 85.419313-103.538562 85.419314z m-54.875438-95.255476c3.62385 10.353856 19.154634 49.180817 54.875438 49.180816s51.769281-38.309268 55.910823-49.180816V378.95476a23.296176 23.296176 0 0 1 9.31847-18.636941c33.13234-25.366948 115.445496-106.127026 90.078549-171.35632-36.756189-103.538562-103.538562-129.423202-140.812444-133.564745l51.769281 92.14932a22.778484 22.778484 0 0 1 0 22.260791l-34.685418 64.711601a23.296176 23.296176 0 0 1-20.19002 12.424628h-80.760078a23.296176 23.296176 0 0 1-19.672327-10.871549l-48.663124-79.207a163.590928 163.590928 0 0 0 72.476994 195.170189 23.296176 23.296176 0 0 1 11.906934 20.19002z m-517.692809 24.331562a122.693196 122.693196 0 1 1 121.140117-122.693196 123.210889 123.210889 0 0 1-123.210888 122.693196z m0-199.829425a76.618536 76.618536 0 1 0 74.547764 77.136229 76.618536 76.618536 0 0 0-76.618535-77.136229z m0 0" p-id="45383" fill="#ffffff"></path><path d="M834.523921 1024c-80.760078 0-103.538562-86.972392-106.644719-90.596242a25.366948 25.366948 0 0 1 0-8.283085V387.755538a219.501751 219.501751 0 0 1-62.123137-295.602594 29.50849 29.50849 0 0 1 25.366947-16.048477 29.50849 29.50849 0 0 1 26.402334 13.977706l63.676215 103.538561h47.627739l18.636941-34.685418L782.75464 47.113669a30.026183 30.026183 0 0 1 18.636941-43.486195s165.661699-36.756189 236.585613 165.661698c37.273882 96.290862-61.605444 192.581725-96.808555 222.607908v535.294365a28.990797 28.990797 0 0 1 0 7.765392s-25.366948 89.043163-106.644718 89.043163zM692.676091 89.046787a16.56617 16.56617 0 0 0-13.460013 9.836163A207.077124 207.077124 0 0 0 740.303829 379.990146h2.588464v544.095142a13.460013 13.460013 0 0 0 0 4.141542c0 3.106157 23.296176 81.277771 94.220092 81.277771S931.850169 929.779909 931.850169 928.744523a17.601556 17.601556 0 0 0 0-4.659235V387.237845c31.061569-26.402333 130.458588-119.069346 95.255476-210.18328-66.782372-191.028647-219.501751-157.896307-221.572522-155.307843a17.083863 17.083863 0 0 0-11.389242 9.836163 16.56617 16.56617 0 0 0 0 15.013092l67.300066 116.998574-25.884641 48.145432h-61.087751l-67.817758-112.857033a17.083863 17.083863 0 0 0-13.977706-9.836163z m141.84783 889.913939c-39.344653 0-56.428516-40.897732-61.087752-51.769281V377.401682a16.56617 16.56617 0 0 0-7.247699-19.672327 169.285549 169.285549 0 0 1-75.58315-202.935581l4.141542-13.460013 55.910823 91.631627a17.083863 17.083863 0 0 0 14.495399 7.765392h82.313157a16.56617 16.56617 0 0 0 14.495398-8.800778l34.685419-64.711601a16.56617 16.56617 0 0 0 0-16.048477L837.112385 47.113669h12.424627c37.791575 3.62385 107.680104 26.920026 146.507065 137.706288 26.920026 69.370836-57.981595 154.272457-92.667013 181.192483a16.56617 16.56617 0 0 0-6.730006 13.460013v544.612835c-4.659235 12.424627-22.260791 54.875438-62.123137 54.875438z m-48.145432-56.428517c4.141542 11.389242 18.119248 43.486196 48.145432 43.486196s45.039274-32.096954 51.76928-43.486196V378.95476a29.50849 29.50849 0 0 1 8.800778-21.225405c30.543876-23.296176 112.33934-103.538562 89.043163-164.108621a171.35632 171.35632 0 0 0-122.693195-127.352431l46.07466 80.242386a29.50849 29.50849 0 0 1 0 28.990797l-34.685419 64.711601a29.50849 29.50849 0 0 1-25.88464 15.530784h-81.795464a30.026183 30.026183 0 0 1-25.366948-13.977705l-40.897731-66.782373a155.307843 155.307843 0 0 0 73.512378 171.35632 30.026183 30.026183 0 0 1 15.013092 25.884641z m-526.493586 30.543876a129.423202 129.423202 0 1 1 129.423202-129.423202 129.423202 129.423202 0 0 1-129.423202 129.423202z m0-245.904084a116.480882 116.480882 0 1 0 116.480882 116.480882 116.480882 116.480882 0 0 0-116.480882-116.480882z m0 199.311731a82.830849 82.830849 0 1 1 82.830849-82.830849 83.348542 83.348542 0 0 1-82.830849 82.830849z m0-155.307842a69.888529 69.888529 0 1 0 69.888529 72.476993 70.406222 70.406222 0 0 0-69.888529-70.406222z" p-id="45384" fill="#ffffff"></path><path d="M683.35762 946.346079a122.693196 122.693196 0 1 1 77.136229-218.466366 23.296176 23.296176 0 0 1-28.990797 36.238497 75.58315 75.58315 0 0 0-48.145432-17.083863 77.653921 77.653921 0 1 0 0 155.307843 75.065457 75.065457 0 0 0 48.145432-17.083863 23.296176 23.296176 0 0 1 28.990797 36.238497 122.693196 122.693196 0 0 1-77.136229 27.437719z m0 0" p-id="45385" fill="#ffffff"></path><path d="M683.35762 953.076085a129.423202 129.423202 0 1 1 81.277771-229.855607 29.50849 29.50849 0 0 1-15.530784 51.769281 30.026183 30.026183 0 0 1-21.743098-6.212314 69.370836 69.370836 0 0 0-44.003889-15.530784 70.147376 70.147376 0 1 0 0 140.294751 68.335451 68.335451 0 0 0 44.003889-15.530784 29.50849 29.50849 0 0 1 48.145431 26.402333 29.50849 29.50849 0 0 1-10.871549 19.672327 128.905509 128.905509 0 0 1-81.277771 28.990797z m0-245.904084a116.480882 116.480882 0 1 0 72.994686 207.077123 16.721478 16.721478 0 1 0-21.225405-25.88464 81.277771 81.277771 0 0 1-51.769281 18.636941 83.089696 83.089696 0 1 1 0-166.179392 81.795464 81.795464 0 0 1 51.769281 18.636942 17.083863 17.083863 0 0 0 12.424628 3.623849 16.56617 16.56617 0 0 0 8.800777-29.50849 116.480882 116.480882 0 0 0-72.994686-26.402333z" p-id="45386" fill="#ffffff"></path></svg>