<svg t="1636188148529" class="icon" viewBox="0 0 1024 1024" version="1.1" xmlns="http://www.w3.org/2000/svg" p-id="9535" width="24" height="24"><path d="M827.904 762.197333 196.096 762.197333c-80.952889 0-133.518222-5.745778-162.531556-35.100444-29.525333-29.809778-29.013333-74.638222-28.216889-148.821333l0.284444-252.416L5.347556 282.339556C4.494222 208.099556 3.982222 163.328 33.507556 133.461333 62.577778 104.106667 115.086222 98.360889 196.096 98.360889l631.808 0c81.009778 0 133.575111 5.745778 162.588444 35.100444 29.582222 29.866667 29.070222 74.638222 28.216889 148.878222L1018.368 534.755556l0.341333 43.52c0.853333 74.183111 1.308444 119.011556-28.216889 148.821333C961.422222 756.508444 908.913778 762.197333 827.904 762.197333zM196.096 141.027556c-78.165333 0-116.451556 6.485333-132.209778 22.414222C46.876444 180.679111 47.274667 218.737778 48.014222 281.884444L48.298667 534.755556l-0.284444 43.975111c-0.739556 63.089778-1.137778 101.205333 15.872 118.385778 15.758222 15.928889 54.044444 22.471111 132.209778 22.471111l631.808 0c78.165333 0 116.508444-6.485333 132.266667-22.471111 17.009778-17.180444 16.554667-55.296 15.872-118.385778l-0.341333-252.871111 0.341333-43.975111c0.682667-63.089778 1.137778-101.205333-15.872-118.385778-15.758222-15.928889-54.101333-22.471111-132.266667-22.471111L196.096 141.027556z" p-id="9536" fill="#ffffff"></path><path d="M266.979556 882.972444l490.040889 0 0 42.666667-490.040889 0 0-42.666667Z" p-id="9537" fill="#ffffff"></path><path d="M301.966222 833.308444l420.067556 0 0 42.666667-420.067556 0 0-42.666667Z" p-id="9538" fill="#ffffff"></path></svg>