<svg t="1636188017082" class="icon" viewBox="0 0 1024 1024" version="1.1" xmlns="http://www.w3.org/2000/svg" p-id="5125" width="24" height="24"><path d="M868.7 872.8c0.2-1.8 0.3-3.6 0.3-5.3V539.3c0-27.2-22.1-49.4-49.4-49.4H641.9c-1.8 0-3.5 0.1-5.3 0.3V156.5c0-27.2-22.1-49.4-49.4-49.4H204.4c-27.2 0-49.4 22.1-49.4 49.4v711c0 1.8 0.1 3.5 0.3 5.3H93.5v44h837.1v-44h-61.9zM199 867.5v-711c0-2.9 2.4-5.3 5.3-5.3h382.8c2.9 0 5.3 2.4 5.3 5.3v711c0 2.9-2.4 5.3-5.3 5.3H204.4c-2.9 0-5.4-2.4-5.4-5.3z m437.6 0V539.3c0-2.9 2.4-5.3 5.3-5.3h177.7c2.9 0 5.3 2.4 5.3 5.3v328.1c0 2.9-2.4 5.3-5.3 5.3H641.9c-2.9 0.1-5.3-2.3-5.3-5.2z" p-id="5126" fill="#ffffff"></path><path d="M717.1 739.1h27.3c12.1 0 22-9.9 22-22v-27.3c0-12.1-9.9-22-22-22h-27.3c-12.1 0-22 9.9-22 22v27.3c0 12.1 9.9 22 22 22zM300.1 575h27.3c12.1 0 22-9.9 22-22v-27.3c0-12.1-9.9-22-22-22h-27.3c-12.1 0-22 9.9-22 22V553c0 12.2 9.8 22 22 22zM464.1 575h27.3c12.1 0 22-9.9 22-22v-27.3c0-12.1-9.9-22-22-22h-27.3c-12.1 0-22 9.9-22 22V553c0 12.2 9.9 22 22 22zM300.1 411h27.3c12.1 0 22-9.9 22-22v-27.3c0-12.1-9.9-22-22-22h-27.3c-12.1 0-22 9.9-22 22V389c0 12.1 9.8 22 22 22zM464.1 411h27.3c12.1 0 22-9.9 22-22v-27.3c0-12.1-9.9-22-22-22h-27.3c-12.1 0-22 9.9-22 22V389c0 12.1 9.9 22 22 22z" p-id="5127" fill="#ffffff"></path></svg>