<svg t="1636189640948" class="icon" viewBox="0 0 1024 1024" version="1.1" xmlns="http://www.w3.org/2000/svg" p-id="32087" width="24" height="24"><path d="M379.7862153125 335.92981999999995L379.7862153125 108.82573906250002c0-14.855113125-12.020460937500001-26.875575-26.875575-26.875575L200.686085 81.9501640625c-14.856242812500001 0-26.875575 12.020460937500001-26.875575 26.875575l0 227.104081875c-40.15588125 14.6711034375-91.860346875 53.3041078125-91.860346875 130.15242375l0 382.82030625c1.2067875 32.202825 25.9306903125 93.0671334375 110.8618865625 93.0671334375l167.9726240625 0c84.9300675 0 109.65397031250001-60.864309375000005 110.8607578125-94.06620468749999L471.6454334375 466.08224468749995C471.6454334375 389.23392781250004 419.9409678125 350.600924375 379.7862153125 335.92981999999995zM417.8942834375 846.9066659375001c-0.1580446875 4.225449374999998-3.0976846874999997 41.310739687499996-57.11073749999999 41.310739687499996L192.81205062499998 888.2174065625001c-50.444619375 0-56.479685625-31.91495625-57.10960875-40.313926875L135.7024428125 466.08224468749995c0-68.47531125 62.568939375-81.9915571875 69.4980890625-83.2784953125 12.912286875-2.20473 22.361128125-13.3852940625 22.361128125-26.481590625L227.56166000000002 135.701313125l98.47340625000001 0 0 220.6208446875c0 12.965345625 9.44884125 24.119944687500002 22.2030834375 26.4556265625 7.0860665625 1.3117743750000002 69.6561346875 14.8280203125 69.6561346875 83.3033315625L417.8942834375 846.9066659375001zM853.51972625 888.2174065625001l-107.5022990625 0L746.0174271875001 564.4766281249999c45.141076874999996-5.223391875 84.09129937499999-22.9391221875 115.1144296875-54.460094999999995 82.149601875-83.4083184375 80.940556875-228.5998659375 80.83557-234.71508375-0.2111034375-14.6981971875-12.176248124999999-26.482719374999995-26.874446250000002-26.482719374999995L523.1918534375001 248.81873000000002c-14.6981971875 0-26.6656003125 11.7845221875-26.875575 26.482719374999995-0.10498687500000001 6.1152178125-1.312903125 151.2796715625 80.83557 234.68911875 31.075059375 31.520972812500002 69.9722240625 49.262668125000005 115.1144296875 54.4860590625l0 323.7407775-107.5022990625 0c-14.855113125 0-26.87670375 12.020460937500001-26.87670375 26.87670375 0 14.853984375000001 12.020460937500001 26.87670375 26.87670375 26.87670375l268.75461843749997 0c14.855113125 0 26.8778325-12.0215896875 26.8778325-26.87670375C880.39643 900.2378675 868.374839375 888.2174065625001 853.51972625 888.2174065625001zM551.3272737499999 302.57100875000003l335.6810878125 0c-3.4126462500000003 41.2057528125-16.1657596875 121.0185440625-64.1426165625 169.731440625-27.0324909375 27.4264753125-60.9433321875 40.758710625-103.67196187500001 40.758710625-42.727501875 0-76.58415562500001-13.30627125-103.6166465625-40.6548525C567.7041359374999 423.931608125 554.791848125 343.8817484375 551.3272737499999 302.57100875000003zM347.1363490625 485.0837853125c-14.856242812500001 0-26.875575 12.020460937500001-26.875575 26.875575l0 272.116464375c0 14.853984375000001 12.0193321875 26.874446250000002 26.875575 26.874446250000002 14.855113125 0 26.874446250000002-12.0193321875 26.874446250000002-26.874446250000002L374.0107953125 511.959359375C374.0107953125 497.10424625 361.991463125 485.0837853125 347.1363490625 485.0837853125z" p-id="32088" fill="#ffffff"></path></svg>