<svg t="1636189562577" class="icon" viewBox="0 0 1024 1024" version="1.1" xmlns="http://www.w3.org/2000/svg" p-id="29386" width="24" height="24"><path d="M871.21578 549.481659c-21.980617 21.992897-46.721091 39.414685-73.000618 52.649104-6.934946 0.659009-15.569604-0.687662-23.431665-8.550747-8.420787-8.441253-18.724457-18.736736-30.296003-30.3134L455.976544 274.762831c-11.877515-11.886725-22.956851-22.950711-32.552393-32.590256-7.006578-7.011694-2.435469-24.234961 3.983731-39.828101 11.660574-19.326161 25.664519-37.629016 42.354644-54.315046 110.859877-110.872157 290.599518-110.872157 401.458371 0C982.078727 258.891352 982.078727 438.620759 871.21578 549.481659M831.074547 188.168614c-88.680738-88.676645-232.481865-88.676645-321.168744 0-10.295484 10.288321-19.320021 21.409612-27.208689 33.021068l315.363528 315.368644c11.614525-7.892761 22.721491-16.907065 33.014928-27.208689C919.758356 420.655596 919.758356 276.860609 831.074547 188.168614M401.205103 437.812347c-15.561417-47.224558-18.308995-97.662297-8.519024-146.088216l51.338249 51.318806c-1.594311 60.008722 20.086477 120.506585 65.880453 166.305677 45.785789 45.785789 106.254999 67.437925 166.256558 65.87943l51.354622 51.361785c-48.293913 9.801227-98.616018 7.091512-145.766898-8.433066-0.499373 0.539282-0.887206 1.119497-1.434675 1.664919L269.166881 910.885779c-51.989071 47.761794-120.739898 59.917648-170.638355 10.021238-49.861618-49.858548-40.527019-117.223818 10.06524-170.594353l291.061029-311.145459C400.159284 438.654528 400.69652 438.271812 401.205103 437.812347M138.639059 880.720759c27.714202 27.727505 67.848271 19.005866 99.177813-9.94449l288.545742-277.782607c-20.167319-11.914354-39.301098-26.208918-56.600089-43.508933-17.267269-17.270339-31.543414-36.348859-43.435255-56.434314L148.622434 781.549086C117.966227 813.761742 110.914624 853.006558 138.639059 880.720759" p-id="29387" fill="#ffffff"></path></svg>