<svg t="1636191453126" class="icon" viewBox="0 0 1024 1024" version="1.1" xmlns="http://www.w3.org/2000/svg" p-id="52009" width="24" height="24"><path d="M256 878.933333v-277.333333H200.533333V401.066667c0-38.4 34.133333-72.533333 72.533334-72.533334H384c38.4 0 72.533333 34.133333 72.533333 72.533334v200.533333H401.066667v277.333333H256z m456.533333 0v-221.866666h110.933334l-93.866667-281.6c-8.533333-29.866667-38.4-51.2-68.266667-51.2h-4.266666c-29.866667 0-59.733333 21.333333-68.266667 51.2l-93.866667 281.6h110.933334v221.866666h106.666666z m-384-588.8c42.666667 0 72.533333-34.133333 72.533334-72.533333s-34.133333-72.533333-72.533334-72.533333S256 174.933333 256 217.6s29.866667 72.533333 72.533333 72.533333z m332.8 0c42.666667 0 72.533333-34.133333 72.533334-72.533333s-34.133333-72.533333-72.533334-72.533333-72.533333 34.133333-72.533333 72.533333 29.866667 72.533333 72.533333 72.533333z" p-id="52010" fill="#ffffff"></path></svg>