<svg t="1636187984666" class="icon" viewBox="0 0 1024 1024" version="1.1" xmlns="http://www.w3.org/2000/svg" p-id="4032" width="24" height="24"><path d="M307.698 682.859l528.245 1.393 0.867 0.015 0.868-0.066c25.132-1.554 46.088-17.992 52.146-40.93l0.08-0.313L992.97 210.381c3.945-15.405 0.54-31.554-9.316-44.36-10.806-14.015-28.292-22.381-46.76-22.381H210.601L181.818 26.217H29.544c-14.805 0-26.806 11.993-26.806 26.797 0 14.812 12.001 26.81 26.806 26.81h110.214l135.963 554.67c-42.146 13.868-72.677 53.569-72.677 100.296 0 31.254 13.663 59.353 35.312 78.703-21.657 19.336-35.323 47.464-35.323 78.72 0 58.204 47.356 105.568 105.57 105.568 58.198 0 105.552-47.364 105.552-105.569a104.956 104.956 0 0 0-13.723-51.966h370.677c-8.71 15.358-13.72 33.09-13.72 51.966 0 58.205 47.365 105.57 105.57 105.57 58.187 0 105.535-47.365 105.535-105.57 0-58.221-47.348-105.569-105.535-105.569H308.602c-0.573 0-1.134 0.031-1.702 0.049-27.854-0.917-50.24-23.839-50.24-51.902 0-28.339 22.815-51.44 51.038-51.931z m629.196-485.612c1.965 0 3.209 0.613 3.831 1.08L838.038 629.322c-0.328 0.344-1.343 1.097-3.112 1.324l-505.278-1.342-105.904-432.057h713.15zM308.602 944.163c-28.647 0-51.954-23.317-51.954-51.95 0-28.081 22.39-51.019 50.25-51.918 0.57 0.017 1.135 0.05 1.703 0.05 0.385 0 0.757-0.05 1.138-0.065 28.116 0.604 50.803 23.658 50.803 51.932 0 28.634-23.301 51.95-51.94 51.95z m606.27-51.95c0 28.633-23.28 51.95-51.915 51.95-28.652 0-51.95-23.317-51.95-51.95 0-28.654 23.298-51.967 51.95-51.967 28.635 0 51.916 23.314 51.916 51.966z" p-id="4033" fill="#ffffff"></path></svg>