<svg t="1636188046238" class="icon" viewBox="0 0 1024 1024" version="1.1" xmlns="http://www.w3.org/2000/svg" p-id="6061" width="24" height="24"><path d="M1019.390813 363.56257c-17.58809-64.489663-37.316529-129.537678-56.486617-192.445344-8.189164-27.173134-16.471386-54.253209-24.567491-81.519401L937.126942 85.03795H86.105342L84.80252 89.690883c-8.375281 27.917603-17.029738 55.649089-25.498077 83.473634C40.041297 235.048537 20.033681 299.352083 4.213706 363.469511a141.076954 141.076954 0 0 0 33.128889 129.723796c33.873358 37.688764 83.566692 55.835206 133.166967 48.297453 38.340175-5.769638 70.910712-25.125843 99.107491-59.185319 31.63995 40.666642 72.585768 61.232609 121.441573 61.23261h0.558352c47.739101-0.093059 88.964095-21.031261 119.5804-60.674257 32.012185 38.154058 75.563646 60.022847 120.790163 60.208964h0.930586c45.598752 0 88.405743-21.217378 121.627691-60.208964l2.605643 2.977877c5.025169 5.769638 9.678102 11.073983 14.703271 16.006093 46.43628 45.598752 119.115106 54.532385 176.625369 21.961847 56.579676-32.012185 87.009863-100.782547 70.910712-160.247041zM127.423394 147.759498c2.605643-9.398926 6.514107-9.771161 17.495031-9.398927H489.23553l184.163122 0.186118c67.932834 0.093059 137.912959 0.279176 206.962497-0.465294h0.930587c14.517154 0 19.170087 3.53623 23.078552 17.681149 9.771161 35.362297 20.472909 71.282947 30.802422 105.993833 9.771161 32.849713 19.914557 66.909189 29.220425 100.503371 7.72387 27.917603 4.839051 56.021324-8.375281 79.099876a91.104445 91.104445 0 0 1-56.858852 43.272284 87.847391 87.847391 0 0 1-69.328714-9.305867c-22.334082-13.586567-38.619351-37.223471-45.598752-66.350837a424.719802 424.719802 0 0 0-3.629288-13.958801l-3.53623-13.586567H731.467266v6.514107c-0.186117 53.229563-28.84819 90.639151-74.912235 97.711611-58.254732 9.11975-88.498802-16.936679-115.858052-99.479726l-1.488939-4.466816H495.098227l-1.116704 5.118227c-16.750562 70.445418-44.109813 99.572784-94.547616 100.782547H396.456029c-49.321099 0-78.169289-30.24407-96.222672-100.503371l-1.209763-5.025169h-46.994631l-2.791761 13.40045-3.722347 17.681149c-5.583521 25.591136-20.193733 47.087691-40.945818 60.302022a94.640674 94.640674 0 0 1-131.212734-32.105243 89.708565 89.708565 0 0 1-10.236455-69.421773c12.097628-45.784869 25.963371-92.12809 39.084645-136.982373 8.46834-29.127366 17.122797-58.161673 25.31196-87.19598z m790.62652 425.743447v-7.816929l-57.603321 10.422572v78.913758l-0.093059 279.548265c0 26.242547-4.559875 30.895481-29.871835 30.895481-214.407192 0.279176-428.814383 0.186117-643.221576 0-25.31196 0-30.057953-4.93211-30.151011-30.709363-0.279176-56.207441-0.093059-205.659676-0.093059-261.960176V570.525067l-57.510262-3.722347v6.979401c0 27.638427 0 55.183795-0.186117 82.636105-0.186117 65.513309-0.465293 226.318702 0.837528 292.669539 0.744469 43.923696 34.617828 74.54 82.170812 74.726118L511.848789 1024l321.517729-0.186117c51.182272 0 82.543046-29.313483 83.938926-78.262348 1.675056-65.513309 1.39588-225.481174 1.023646-290.063896l-0.186118-81.891635zM123.421871 58.702344a53.322622 53.322622 0 0 0 26.614782 3.53623c2.326467-0.093059 4.93211 0.093059 6.607166-0.093059l284.10814 0.093059h129.537679L858.399302 62.145515 865.471761 62.331632l7.72387 0.279176a36.292884 36.292884 0 0 0 16.006093-2.977877c8.375281-4.001523 20.938202-15.261623 21.403495-26.614782 0.465293-11.167041-10.422572-23.636904-18.425618-28.84819-6.514107-4.280699-15.44774-4.001523-23.078552-3.629288l-5.490461 0.093059H151.525592l-5.583521-0.093059a42.806991 42.806991 0 0 0-22.706317 3.257054c-8.003046 4.466816-18.797853 16.19221-18.239501 26.521723a38.154058 38.154058 0 0 0 18.425618 28.382896z" p-id="6062" fill="#ffffff"></path></svg>