<svg t="1636188807981" class="icon" viewBox="0 0 1024 1024" version="1.1" xmlns="http://www.w3.org/2000/svg" p-id="12736" width="24" height="24"><path d="M353.8 260.7c15.2 0 25.4-10.1 25.4-25.4L379.2 32.4C379.2 17.1 369 7 353.8 7c-15.2 0-25.4 10.1-25.4 25.4l0 203.1C328.3 250.6 338.5 260.7 353.8 260.7L353.8 260.7zM252.2 260.7c15.2 0 25.4-10.1 25.4-25.4L277.6 32.4c0-15.2-10.1-25.4-25.4-25.4s-25.4 10.1-25.4 25.4l0 203.1C226.8 250.6 236.9 260.7 252.2 260.7L252.2 260.7zM455.4 7C440.2 7 430 17.1 430 32.4l0 362.9c0 12.8-5.1 25.4-15.2 35.5L369 476.5l-15.2 17.7 0 20.2 0 406c0 27.9-22.9 50.7-50.7 50.7-28 0-50.7-22.9-50.7-50.7l0-406 0-20.2L237.1 479l-45.7-45.7c-10.1-10.1-15.2-22.9-15.2-35.5L176.2 32.4C176.1 17.1 166 7 150.7 7c-15.2 0-25.4 10.1-25.4 25.4l0 362.9c0 27.9 10.1 53.2 30.5 71.1l45.7 48.2 0 406c0 55.9 45.7 101.5 101.6 101.5s101.6-45.7 101.6-101.5L404.7 514.5l45.7-45.7c20.4-20.2 30.5-45.7 30.5-71.1L480.9 32.4C480.8 17.1 470.5 7 455.4 7L455.4 7zM861.7 7 861.7 7c-139.7 0-254 114.2-254 253.8l0 406 101.6 101.5 0 152.2c0 55.9 45.7 101.5 101.6 101.5s101.6-45.7 101.6-101.5L912.5 57.7C912.4 29.7 889.7 7 861.7 7L861.7 7zM861.7 920.5c0 27.9-22.9 50.7-50.7 50.7-28 0-50.7-22.9-50.7-50.7L760.3 768.3l0-20.2L745 732.8l-86.4-86.2L658.6 260.7c0-111.7 91.5-203.1 203.2-203.1l0 862.9L861.7 920.5z" p-id="12737" fill="#ffffff"></path></svg>