<svg t="1636189473516" class="icon" viewBox="0 0 1024 1024" version="1.1" xmlns="http://www.w3.org/2000/svg" p-id="26396" width="24" height="24"><path d="M896 128H128c-53.04 0-96 42.96-96 96v576c0 52.992 42.96 96 96 96h768c52.992 0 96-43.008 96-96V224c0-53.04-43.008-96-96-96z m48 672c0 26.496-21.504 48-48 48H128c-26.496 0-48-21.504-48-48V464h864v336z m0-384H80V224c0-26.496 21.504-48 48-48h768c26.496 0 48 21.504 48 48v192z" p-id="26397" fill="#ffffff"></path><path d="M766.4 747.728c13.776 7.344 31.392 2.976 39.36-9.696l86.4-137.616c7.92-12.672 3.216-28.848-10.56-36.144-13.776-7.344-31.392-2.976-39.36 9.696l-86.4 137.616c-7.92 12.672-3.216 28.848 10.56 36.144zM622.4 747.728c13.776 7.344 31.392 2.976 39.36-9.696l86.4-137.616c7.92-12.672 3.216-28.848-10.56-36.144-13.776-7.344-31.392-2.976-39.36 9.696l-86.4 137.616c-7.92 12.672-3.216 28.848 10.56 36.144zM478.4 747.728c13.776 7.344 31.392 2.976 39.36-9.696l86.4-137.616c7.92-12.672 3.216-28.848-10.56-36.144-13.776-7.344-31.392-2.976-39.36 9.696l-86.4 137.616c-7.92 12.672-3.216 28.848 10.56 36.144z" p-id="26398" fill="#ffffff"></path></svg>