<svg t="1636189725828" class="icon" viewBox="0 0 1024 1024" version="1.1" xmlns="http://www.w3.org/2000/svg" p-id="34504" width="24" height="24"><path d="M947.497099 936.526793v5.145483c-9.05605 5.145483-18.060644 14.510261-27.116694 14.510261-122.35958-0.257274-235.200016 48.624812-353.649029 67.817463h-113.200621c-12.349159-2.675651-24.646862-5.608576-37.047475-7.924043-107.386225-20.067383-210.656064-62.105977-322.261585-59.79051-15.693722 0.308729-19.810109-11.731701-17.134457-25.418685 4.219296-21.816847 8.798775-43.582239 13.995713-65.193266 19.50138-81.041353 59.6876-143.25024 147.212261-163.986535a31.644719 31.644719 0 0 0 18.986832-22.537215c4.116386-66.479637 8.541501-133.165093 8.026953-199.696185-0.360184-43.839513 0.308729-88.605213-22.022667-130.232168-7.35804-13.738439-3.035835-34.783463-1.234915-52.175195s9.827872-35.70965 10.290965-53.667385c4.630934-125.292505 69.978565-208.906599 189.40522-235.560201A358.177054 358.177054 0 0 1 538.842859 0.717846c112.017159 6.226034 198.821453 76.513328 221.564487 177.724974 5.96876 26.550691 6.328944 54.284843 9.416234 81.504447 0.926187 8.438592 0 18.163554 3.859112 25.007046 16.517 28.763249 8.85023 56.240126-2.058193 83.871369-2.830016 7.100766-8.284227 13.892803-8.798776 21.096479-6.277489 94.831247-15.436448 189.713949 0 284.596651 2.778561 17.391732 11.165698 26.602146 28.248701 30.872896 67.920372 16.825729 108.775505 61.745793 128.173975 127.402153 10.033691 34.268915 18.832467 69.000924 28.2487 103.732932z m-514.033726-348.297727c-5.814396 74.352226-54.645027 104.4533-115.773362 123.491586a1021.223961 1021.223961 0 0 0-108.672596 39.002759 119.786838 119.786838 0 0 0-47.441351 36.996021C133.739003 826.413463 122.676215 872.414078 113.414346 920.164158l107.694954 11.988975c11.165698-26.85942 22.228485-51.815011 31.850538-77.182241 5.145483-13.584074 13.275345-17.700461 27.322513-16.41409 29.8438 2.727106 59.996329 2.778561 89.737219 6.380398C426.259697 851.677783 472.569042 876.015916 503.441938 925.875644a67.868917 67.868917 0 0 1 3.807657 14.458807c29.226342-48.007354 61.745793-78.828796 108.055138-87.215933 43.582239-7.924043 88.245029-10.290965 132.547636-13.892803 5.660031-0.411639 14.767535 7.56386 17.70046 13.789893 11.886065 25.418685 22.022666 51.454827 33.445638 79.137525l111.605521-12.452068c-13.42971-38.282392-25.161411-74.558045-38.848395-110.113331-12.091884-31.33599-35.658195-51.815011-67.354369-62.826344-34.732009-12.091884-69.309653-24.904136-104.401845-36.01838-60.407967-18.832467-107.43768-49.911183-113.20062-122.513944-52.020831 31.387445-101.674739 31.953448-153.335386 0z m308.728965-239.367857c-142.426962-25.161411-278.370617-59.327416-394.555617-149.219-7.924043 82.996637-12.503523 101.211646-30.512713 120.815935-6.328944-3.550383-12.812252-7.409495-19.552835-10.908423-19.141196-10.290965-24.904136-6.740582-24.749772 14.201532 0.257274 33.651457 26.85942 66.891276 58.864323 79.08607a66.325273 66.325273 0 0 1 29.020523 25.470139c19.089741 29.329252 33.394183 62.054522 54.181933 89.994494 59.893419 80.57826 131.158355 80.732624 190.7945 0.360184 21.250844-28.660339 36.018379-62.054522 55.21103-92.361416 5.917305-9.313324 15.436448-20.273202 25.109956-22.588669 29.380706-6.946402 44.559881-26.190507 56.034307-54.850846z" p-id="34505" fill="#ffffff"></path><path d="M671.33904 713.315752c8.387137 34.42328-54.645027 78.468612-133.062184 96.580711 9.827872 19.192651 15.436448 38.745485-4.836753 54.490662a35.195102 35.195102 0 0 1-47.235532-0.823277c-18.986831-15.848087-14.150078-34.629099-3.498928-53.152837-81.813176-21.096479-138.928034-60.459422-134.811648-97.301079 107.33477 106.768767 214.77245 109.341508 323.445045 0.20582z" p-id="34506" fill="#ffffff"></path></svg>