<svg t="1636188960529" class="icon" viewBox="0 0 1024 1024" version="1.1" xmlns="http://www.w3.org/2000/svg" p-id="16438" width="24" height="24"><path d="M632.8 608.1L566.2 576c-30.8 2.8-63.3 4.3-97 4.3-197.3 0-357.1-50.7-357.1-113.3 0-23.2 22.2-44.8 60-62.8L138.4 381c-36.5 21.2-64.9 46.3-70.5 73.2l-5.1 0.1v49.2c0 6.3 1.6 12.7 1.6 19.1 0 146.1 180.4 264.5 401.3 264.5 129.3 0 244.8-40.6 317.9-103.5l-152.3-75.5c0.4 0.1 1.2 0 1.5 0z m194.6-163.5c0 10.3-4.1 20.2-11.7 29.6l4.3 3.3c-1.2 0.9-2.1 1.8-3.4 2.6l51.7 34.4c2.8-35.4 0.5-69.9 0.5-69.9 0-75.8-133.6-139.3-312.9-155.8l52.8 48.4c128.7 18 218.7 59.4 218.7 107.4zM670.7 796.1c-34.9 20.4-112.7 34.6-203.1 34.6-90.4 0-168.2-14.2-203.1-34.5-0.9 0.5-1.9 0.9-2.7 1.4l-19.7-12.1v36.7s6.9 8.5 16.7 8.5h0.1c31.7 45.1 113.2 40.9 208.7 40.9 118.2 0 214.9-21.2 222.3-50.7 0.3-0.4 0.5 1.3 0.5 1.3v-36.7L672 796.7c-0.5-0.2-1-0.4-1.3-0.6zM115.9 204.2s-21.3-20.5-53.1 16.7v55.5l739.9 373.1s36.8 5.4 15.6-21.2c-21.2-26.6-702.4-424.1-702.4-424.1z m836.7 418.7l-701.7-468c-35.2-9.5-53.6 31.4-53.6 31.4v37.3s698 399.3 738.4 420.5c40.4 21.2 16.9-21.2 16.9-21.2z" p-id="16439" fill="#ffffff"></path></svg>