<svg t="1635929121260" class="icon" viewBox="0 0 1194 1024" version="1.1" xmlns="http://www.w3.org/2000/svg" p-id="3345" width="24" height="24"><path d="M851.285333 324.522667A342.784 342.784 0 0 1 1194.666667 666.709333a342.784 342.784 0 0 1-343.466667 342.186667 342.784 342.784 0 0 1-343.381333-342.186667 342.784 342.784 0 0 1 343.466666-342.186666z m126.890667 340.992h-50.688l67.925333-144.298667h-73.216l-58.88 133.973333-67.925333-133.973333h-72.533333l77.141333 144.298667h-57.258667v54.186666h90.624v18.090667H742.741333v54.101333h90.624v72.192h54.272V791.893333h90.624v-54.101333h-90.624v-18.090667h90.538667v-54.186666zM125.44 107.178667C125.354667 47.957333 304.64 0 525.738667 0s400.384 47.957333 400.384 107.178667-179.2 107.178667-400.384 107.178666c-221.098667 0-400.384-47.957333-400.384-107.178666z m-5.376 274.090666c30.293333 23.893333 58.88 48.384 162.133333 70.314667C117.76 435.626667 2.304 401.408 2.304 359.253333c0-24.917333 34.048-47.872 106.496-65.706666 0 0-6.570667 28.757333-6.826667 40.362666-0.170667 9.130667 8.106667 34.218667 18.090667 47.36z m377.258667 98.474667a385.877333 385.877333 0 0 0-44.373334 153.6c-17.749333 0.341333-35.84 0.597333-54.357333 0.597333C258.133333 634.026667 0 593.92 0.170667 539.306667H0V394.837333h0.341333c18.773333 49.322667 190.037333 87.893333 398.592 87.893334 32.768 0 65.536-0.938667 98.304-2.986667z m-6.144 309.418667a388.266667 388.266667 0 0 0 91.989333 147.541333c-40.789333 2.730667-84.565333 4.096-130.218667 4.096-140.373333 0-398.506667-40.106667-398.336-94.72H54.357333V701.696H54.613333c18.773333 49.322667 190.037333 87.893333 398.592 87.893333 12.629333 0 25.173333-0.085333 37.802667-0.426666z m41.130666-357.546667h-6.826666c-218.282667 0-395.434667-36.778667-398.421334-108.970667h-0.170666V178.261333h0.341333c18.773333 49.322667 190.037333 87.893333 398.592 87.893334 206.762667 0 376.917333-37.888 398.165333-86.613334v90.709334a459.434667 459.434667 0 0 0-49.834666-2.816c-140.117333 0-264.448 64.597333-341.845334 164.181333z m-79.872 254.890667c0.341333 17.152 1.792 34.304 4.352 51.2-25.173333-0.256-211.114667-4.864-349.098666-70.997334 0 0 154.965333 31.744 343.808 13.141334l0.853333 6.656z" p-id="3346" fill="#31A7FF"></path></svg>