<svg t="1635928653966" class="icon" viewBox="0 0 1024 1024" version="1.1" xmlns="http://www.w3.org/2000/svg" p-id="3146" width="24" height="24"><path d="M288.6 840.8c0 25.02-20.29 45.31-45.31 45.31H110.41c-25.02 0-45.31-20.28-45.31-45.31V683.75c0-25.05 20.29-45.34 45.31-45.34H243.3c25.02 0 45.31 20.29 45.31 45.31V840.8h-0.01z m332.71 0c0 25.02-20.26 45.31-45.31 45.31H443.12c-25.02 0-45.31-20.28-45.31-45.31V605.95c0-25.02 20.29-45.31 45.31-45.31H576c25.05 0 45.34 20.29 45.34 45.31V840.8h-0.03z m339.02 0c0 25.02-20.29 45.31-45.31 45.31H782.16c-25.02 0-45.31-20.28-45.31-45.31V490.6c0-25.02 20.29-45.31 45.31-45.31h132.89c25.02 0 45.31 20.29 45.31 45.31v350.2h-0.03z m-85.42-564.56l-16.26-30.1-297.86 150.64c-20.59 10.38-45.69 3.04-57.45-16.79l-65.71-111.2-299.26 202.73c-20.14 13.39-47.32 7.93-60.71-12.21-13.24-19.9-8.07-46.74 11.61-60.3L427.09 170.2c10-6.8 22.37-9.14 34.16-6.45a43.603 43.603 0 0 1 28.08 20.44l68.54 115.95 259.23-131.1-19.38-35.99 162.6 4.76-85.41 138.43z" p-id="3147" fill="#31A7FF"></path></svg>