<?xml version="1.0" encoding="utf-8"?>
<svg version="1.1" xmlns:xlink="http://www.w3.org/1999/xlink" width="27px" height="27px" xmlns="http://www.w3.org/2000/svg">
  <g transform="matrix(1 0 0 1 -1164 -1018 )">
    <path d="M 1177.5 1019  C 1184.5 1019  1190 1024.5  1190 1031.5  C 1190 1038.5  1184.5 1044  1177.5 1044  C 1170.5 1044  1165 1038.5  1165 1031.5  C 1165 1024.5  1170.5 1019  1177.5 1019  Z " fill-rule="nonzero" fill="#1df5f8" stroke="none" fill-opacity="0.0980392156862745" />
    <path d="M 1177.5 1019  C 1184.5 1019  1190 1024.5  1190 1031.5  C 1190 1038.5  1184.5 1044  1177.5 1044  C 1170.5 1044  1165 1038.5  1165 1031.5  C 1165 1024.5  1170.5 1019  1177.5 1019  Z " stroke-width="2" stroke="#1df9fc" fill="none" />
  </g>
</svg>