<?xml version="1.0" encoding="utf-8"?>
<svg version="1.1" xmlns:xlink="http://www.w3.org/1999/xlink" width="27px" height="27px" xmlns="http://www.w3.org/2000/svg">
  <g transform="matrix(1 0 0 1 -1380 -1018 )">
    <path d="M 1393.5 1019  C 1400.5 1019  1406 1024.5  1406 1031.5  C 1406 1038.5  1400.5 1044  1393.5 1044  C 1386.5 1044  1381 1038.5  1381 1031.5  C 1381 1024.5  1386.5 1019  1393.5 1019  Z " fill-rule="nonzero" fill="#fff45c" stroke="none" fill-opacity="0.0980392156862745" />
    <path d="M 1393.5 1019  C 1400.5 1019  1406 1024.5  1406 1031.5  C 1406 1038.5  1400.5 1044  1393.5 1044  C 1386.5 1044  1381 1038.5  1381 1031.5  C 1381 1024.5  1386.5 1019  1393.5 1019  Z " stroke-width="2" stroke="#fff45c" fill="none" />
  </g>
</svg>